<?xml version="1.0" encoding="UTF-8"?>
<svg id="_レイヤー_1" data-name="レイヤー 1" xmlns="http://www.w3.org/2000/svg" viewBox="0 0 155.95 50.65">
  <defs>
    <style>
      .cls-1 {
        fill: #fff;
      }

      .cls-2 {
        fill: #ef8200;
      }
    </style>
  </defs>
  <g>
    <g>
      <polygon class="cls-2" points="58.82 14.9 58.82 0 54.3 0 54.3 14.9 54.3 18.62 58.02 18.62 100.01 18.62 100.01 14.9 58.82 14.9"/>
      <path class="cls-2" d="M40.12,0C43.21,0,45.71,2.5,45.71,5.59s-2.5,5.59-5.59,5.59H4.52v7.45H0V0h40.12ZM39.33,7.45c1.03,0,1.86-.83,1.86-1.86s-.83-1.86-1.86-1.86H4.52v3.72h34.81Z"/>
      <path class="cls-2" d="M116.37,7.45c-1.03,0-1.86-.83-1.86-1.86,0-1.03.83-1.86,1.86-1.86h39.33s0-3.72,0-3.72h-40.12c-3.09,0-5.59,2.5-5.59,5.59,0,3.09,2.5,5.59,5.59,5.59h33.74c1.03,0,1.86.83,1.86,1.86s-.83,1.86-1.86,1.86h-39.33s0,3.72,0,3.72h40.12c3.09,0,5.59-2.5,5.59-5.59,0-3.09-2.5-5.59-5.59-5.59h-33.74Z"/>
      <circle class="cls-2" cx="49.31" cy="16.76" r="1.86"/>
      <circle class="cls-2" cx="105" cy="16.76" r="1.86"/>
    </g>
    <g>
      <path class="cls-1" d="M6.54,23.81c0,.42-.15.78-.44,1.07-.29.3-.65.45-1.06.45H.87v2.15h-.87v-5.19h5.03c.41,0,.77.15,1.06.45.29.3.44.66.44,1.07ZM5.67,23.81c0-.18-.06-.33-.19-.45s-.27-.19-.45-.19H.87v1.28h4.16c.18,0,.33-.06.45-.19s.19-.28.19-.45Z"/>
      <path class="cls-1" d="M12.41,24.84c0,.31-.11.58-.33.8-.22.22-.49.33-.8.33h-.43l1.51,1.51h-1.05l-1.51-1.51h-1.35v1.51h-.74v-3.78h3.59c.31,0,.57.11.79.33.22.22.33.49.33.8ZM11.66,24.84c0-.1-.04-.19-.11-.27-.07-.07-.16-.11-.26-.11h-2.84v.76h2.84c.1,0,.19-.04.26-.11s.11-.17.11-.27Z"/>
      <path class="cls-1" d="M18.18,26.35c0,.34-.1.61-.31.82-.21.21-.48.31-.82.31h-2.49c-.33,0-.6-.11-.81-.32-.21-.21-.32-.48-.32-.82v-1.51c0-.32.11-.59.33-.81.22-.22.49-.33.8-.33h2.49c.32,0,.59.11.81.32.22.22.32.49.32.81v1.51ZM17.43,26.35v-1.51c0-.26-.13-.38-.38-.38h-2.49c-.11,0-.2.04-.27.11-.07.07-.11.16-.11.27v1.51c0,.25.13.38.38.38h2.49c.25,0,.38-.13.38-.38Z"/>
      <path class="cls-1" d="M23.93,24.46h-4v.76h2.92v.76h-2.92v1.51h-.75v-3.78h4.75v.75Z"/>
      <path class="cls-1" d="M29.65,24.46h-4v.76h2.92v.76h-2.92v1.51h-.75v-3.78h4.75v.75Z"/>
      <path class="cls-1" d="M35.37,27.49h-4.75v-3.78h4.75v.75h-4v.76h4v.76h-4v.75h4v.76Z"/>
      <path class="cls-1" d="M41.1,26.35c0,.31-.11.58-.33.8-.22.22-.49.33-.8.33h-3.61v-.76h3.61c.1,0,.19-.04.27-.11.07-.07.11-.16.11-.26s-.04-.19-.11-.26c-.07-.07-.16-.11-.27-.11h-2.49c-.31,0-.58-.11-.8-.33-.22-.22-.33-.49-.33-.8s.11-.58.33-.8c.22-.22.49-.33.8-.33h3.62v.75h-3.62c-.1,0-.19.04-.27.11-.07.08-.11.17-.11.27s.04.19.11.27.16.11.27.11h2.49c.32,0,.58.11.8.33.22.22.33.49.33.8Z"/>
      <path class="cls-1" d="M42.82,27.49h-.75v-3.78h.75v3.78Z"/>
      <path class="cls-1" d="M48.57,26.35c0,.34-.1.61-.31.82-.21.21-.48.31-.82.31h-2.49c-.33,0-.6-.11-.81-.32-.21-.21-.32-.48-.32-.82v-1.51c0-.32.11-.59.33-.81.22-.22.49-.33.8-.33h2.49c.32,0,.59.11.81.32.22.22.32.49.32.81v1.51ZM47.81,26.35v-1.51c0-.26-.13-.38-.38-.38h-2.49c-.11,0-.2.04-.27.11-.07.07-.11.16-.11.27v1.51c0,.25.13.38.38.38h2.49c.25,0,.38-.13.38-.38Z"/>
      <path class="cls-1" d="M54.31,27.49h-.96l-3.04-2.88v2.88h-.75v-3.78h.96l3.03,2.88v-2.88h.76v3.78Z"/>
      <path class="cls-1" d="M60.51,27.49h-.91l-.47-.75h-2.53l-.46.75h-.92l2.27-3.78h.76l2.27,3.78ZM58.65,25.98l-.79-1.27-.8,1.27h1.59Z"/>
      <path class="cls-1" d="M66.15,27.49h-4.75v-3.78h.75v3.02h4v.76Z"/>
      <path class="cls-1" d="M77.35,27.49h-6.54v-5.19h.87v4.32h5.67v.88Z"/>
      <path class="cls-1" d="M83.26,26.35c0,.34-.1.61-.31.82-.21.21-.48.31-.82.31h-2.49c-.33,0-.6-.11-.81-.32-.21-.21-.32-.48-.32-.82v-1.51c0-.32.11-.59.33-.81.22-.22.49-.33.8-.33h2.49c.32,0,.59.11.81.32.22.22.32.49.32.81v1.51ZM82.5,26.35v-1.51c0-.26-.13-.38-.38-.38h-2.49c-.11,0-.2.04-.27.11-.07.07-.11.16-.11.27v1.51c0,.25.13.38.38.38h2.49c.25,0,.38-.13.38-.38Z"/>
      <path class="cls-1" d="M88.98,27.49h-3.62c-.34,0-.61-.1-.82-.31-.21-.21-.31-.48-.31-.82v-1.51c0-.32.11-.59.32-.81s.48-.32.81-.32h3.62v.75h-3.62c-.25,0-.38.13-.38.38v1.51c0,.25.13.38.38.38h2.86v-.75h-1.35v-.76h2.11v2.26Z"/>
      <path class="cls-1" d="M90.74,27.49h-.75v-3.78h.75v3.78Z"/>
      <path class="cls-1" d="M96.46,26.35c0,.31-.11.58-.33.8-.22.22-.49.33-.8.33h-3.61v-.76h3.61c.1,0,.19-.04.27-.11.07-.07.11-.16.11-.26s-.04-.19-.11-.26c-.07-.07-.16-.11-.27-.11h-2.49c-.31,0-.58-.11-.8-.33-.22-.22-.33-.49-.33-.8s.11-.58.33-.8c.22-.22.49-.33.8-.33h3.62v.75h-3.62c-.1,0-.19.04-.27.11-.07.08-.11.17-.11.27s.04.19.11.27c.07.07.16.11.27.11h2.49c.32,0,.58.11.8.33.22.22.33.49.33.8Z"/>
      <path class="cls-1" d="M102.19,24.46h-2v3.03h-.76v-3.03h-1.99v-.75h4.75v.75Z"/>
      <path class="cls-1" d="M103.91,27.49h-.75v-3.78h.75v3.78Z"/>
      <path class="cls-1" d="M109.66,27.49h-3.62c-.32,0-.59-.11-.81-.32s-.32-.48-.32-.81v-1.51c0-.33.11-.6.32-.82.21-.21.48-.32.81-.32h3.62v.75h-3.62c-.25,0-.38.13-.38.38v1.51c0,.25.13.38.38.38h3.62v.76Z"/>
      <path class="cls-1" d="M115.38,26.35c0,.31-.11.58-.33.8-.22.22-.49.33-.8.33h-3.61v-.76h3.61c.1,0,.19-.04.27-.11.07-.07.11-.16.11-.26s-.04-.19-.11-.26c-.07-.07-.16-.11-.27-.11h-2.49c-.31,0-.58-.11-.8-.33-.22-.22-.33-.49-.33-.8s.11-.58.33-.8c.22-.22.49-.33.8-.33h3.62v.75h-3.62c-.1,0-.19.04-.27.11-.07.08-.11.17-.11.27s.04.19.11.27c.07.07.16.11.27.11h2.49c.32,0,.58.11.8.33.22.22.33.49.33.8Z"/>
      <path class="cls-1" d="M126.58,23.17h-5.03c-.18,0-.33.06-.45.19s-.19.28-.19.45.06.33.19.45.27.19.45.19h3.53c.41,0,.77.15,1.06.44s.44.65.44,1.07-.15.77-.44,1.07-.65.44-1.06.44h-5.03v-.88h5.03c.18,0,.33-.06.45-.19.12-.13.19-.28.19-.45s-.06-.32-.19-.45c-.12-.13-.27-.19-.45-.19h-3.53c-.41,0-.77-.15-1.06-.45-.29-.3-.44-.66-.44-1.07s.15-.78.44-1.07c.29-.3.65-.45,1.06-.45h5.03v.88Z"/>
      <path class="cls-1" d="M132.16,23.71l-2.01,2.22v1.56h-.75v-1.56l-2-2.21h.92l1.46,1.53,1.46-1.53h.92Z"/>
      <path class="cls-1" d="M137.55,26.35c0,.31-.11.58-.33.8-.22.22-.49.33-.8.33h-3.61v-.76h3.61c.1,0,.19-.04.27-.11.07-.07.11-.16.11-.26s-.04-.19-.11-.26c-.07-.07-.16-.11-.27-.11h-2.49c-.31,0-.58-.11-.8-.33-.22-.22-.33-.49-.33-.8s.11-.58.33-.8c.22-.22.49-.33.8-.33h3.62v.75h-3.62c-.1,0-.19.04-.27.11-.07.08-.11.17-.11.27s.04.19.11.27c.07.07.16.11.27.11h2.49c.32,0,.58.11.8.33.22.22.33.49.33.8Z"/>
      <path class="cls-1" d="M143.27,24.46h-2v3.03h-.76v-3.03h-1.99v-.75h4.75v.75Z"/>
      <path class="cls-1" d="M149,27.49h-4.75v-3.78h4.75v.75h-4v.76h4v.76h-4v.75h4v.76Z"/>
      <path class="cls-1" d="M155.75,27.49h-.76v-2.68l-1.76,2.68h-.72l-1.76-2.68v2.68h-.75v-3.78h.96l1.91,2.84,1.91-2.84h.97v3.78Z"/>
    </g>
  </g>
  <g>
    <path class="cls-1" d="M12.25,42.08h-6.53c-.11.25-.27.58-.49.97h5.64v6.03c0,.37-.05.66-.14.87-.09.21-.26.36-.49.46-.33.16-1.06.24-2.17.24-.06-.45-.21-.92-.43-1.4.41.02.92.04,1.54.04.18,0,.27-.09.27-.24v-.74h-4.39v2.33h-1.44v-5.3c-.52.56-1.05,1.04-1.61,1.42-.21-.33-.52-.7-.95-1.11,1.23-.83,2.24-2.01,3.04-3.56H1.43v-1.36h3.29c.21-.56.37-1.06.48-1.48l1.5.33c-.12.38-.25.76-.39,1.14h5.95v1.36ZM9.47,45.09v-.77h-4.39v.77h4.39ZM5.07,47.09h4.39v-.79h-4.39v.79Z"/>
    <path class="cls-1" d="M16.93,39.72l.99.57c-.6,1.87-.98,2.98-1.13,3.35.62.73.93,1.56.93,2.49,0,.79-.18,1.31-.56,1.58-.17.14-.4.23-.71.29-.1.02-.39.02-.85.02-.02-.5-.12-.93-.32-1.3.15,0,.34.01.57.01.13,0,.24-.04.34-.11.15-.11.23-.34.23-.68,0-.74-.3-1.45-.9-2.14.21-.62.46-1.53.76-2.74h-1.08v9.57h-1.35v-10.86h2.87l.21-.06ZM23.37,45.55l1.13.81c-.54.52-1.09.99-1.64,1.42.52.74,1.16,1.27,1.91,1.61-.42.39-.73.8-.94,1.23-.86-.45-1.55-1.11-2.07-1.96-.52-.86-.93-1.92-1.22-3.18h-.88v3.14c.09-.02.67-.12,1.76-.32l.11,1.27c-.52.13-1.26.29-2.2.49-.94.2-1.56.33-1.85.4l-.48-1.4s.44-.06,1.27-.19v-9.06h5.66v5.67h-2.13c.1.39.26.82.46,1.29.5-.49.87-.89,1.11-1.2ZM22.49,41.04h-2.83v.97h2.83v-.97ZM19.66,43.19v1.02h2.83v-1.02h-2.83Z"/>
    <path class="cls-1" d="M28.36,44.24v-.88c-.59.42-1.27.83-2.06,1.22-.21-.44-.49-.84-.85-1.22,1-.44,1.95-1.05,2.85-1.81.9-.76,1.59-1.52,2.07-2.27h1.51c.63.88,1.41,1.66,2.32,2.33.91.67,1.86,1.18,2.84,1.53-.21.21-.52.66-.93,1.33-.77-.37-1.45-.77-2.05-1.18v.95h-5.7ZM26.21,46.59v-1.34h10.09v1.34h-5.47c-.4.8-.78,1.52-1.12,2.16.86-.02,2.08-.07,3.67-.13-.41-.48-.81-.9-1.19-1.24l1.27-.68c.55.48,1.08,1.02,1.6,1.6.52.58.92,1.1,1.2,1.55l-1.36.81c-.07-.13-.23-.39-.49-.75-.33.02-2.98.14-7.94.37l-.2-1.4,1.85-.07c.32-.65.63-1.38.93-2.2h-2.83ZM28.97,42.92h4.57c-.99-.74-1.77-1.49-2.35-2.26-.57.81-1.31,1.56-2.23,2.26Z"/>
    <path class="cls-1" d="M43.09,46.14l-.87,1.19c-.32-.41-.68-.84-1.08-1.29v4.6h-1.44v-4.2c-.48.45-.99.84-1.51,1.17-.06-.19-.16-.43-.3-.73-.15-.29-.28-.51-.39-.66.67-.36,1.3-.84,1.91-1.44s1.11-1.26,1.51-1.96h-2.95v-1.31h1.74v-2.24h1.44v2.24h.55l.25-.06.82.52c-.36.91-.84,1.77-1.44,2.61.38.31.97.83,1.77,1.56ZM46.6,48.88h2.6v1.4h-6.89v-1.4h2.81v-4.47h-2.31v-1.4h2.31v-3.64h1.49v3.64h2.31v1.4h-2.31v4.47Z"/>
    <path class="cls-1" d="M55.07,40.04v2.74c1.97-.49,3.64-1.03,5.01-1.61.43-.16.9-.38,1.4-.66-.28-.35-.42-.73-.42-1.15,0-.48.17-.89.5-1.23.33-.34.74-.51,1.22-.51s.89.17,1.23.51c.34.34.51.75.51,1.23s-.17.89-.51,1.23-.75.51-1.23.51c-.34,0-.65-.09-.93-.28l.59,1.41c-.07.03-.32.13-.75.31s-.74.3-.93.37c-1.58.63-3.48,1.22-5.68,1.77v2.67c0,.29.07.5.21.63.14.13.39.22.74.29.44.06,1,.08,1.68.08.81,0,1.71-.05,2.71-.14.99-.09,1.77-.22,2.33-.37v2.12c-1.36.2-3.08.3-5.16.3-.91,0-1.73-.06-2.43-.17-1.32-.23-1.98-.95-1.98-2.16v-7.89c0-.52-.04-1.02-.11-1.5h2.14c-.08.48-.11.98-.11,1.5ZM62.78,40.2c.24,0,.43-.08.59-.24s.24-.36.24-.59-.08-.43-.24-.59-.36-.24-.59-.24-.42.08-.58.24c-.16.16-.24.36-.24.59s.08.43.24.59c.16.16.35.24.58.24Z"/>
    <path class="cls-1" d="M65.37,45.22v-2.28c.7.06,1.47.08,2.33.08h7.78c.37,0,.93-.03,1.7-.08v2.28c-.07,0-.21,0-.43-.02-.22-.01-.44-.03-.66-.04-.22,0-.42-.01-.6-.01h-7.78c-.96,0-1.74.02-2.33.07Z"/>
    <path class="cls-1" d="M80.72,45.13c-.28-.27-.42-.6-.42-.99s.14-.72.42-.99c.28-.27.61-.41,1-.41s.72.14.99.41c.27.27.41.6.41.99s-.14.72-.41.99c-.27.27-.6.41-.99.41s-.72-.14-1-.41Z"/>
    <path class="cls-1" d="M93.29,47.37h3.83c.41,0,.85-.04,1.34-.11v2.11c-.41-.06-.85-.09-1.34-.09h-9.54c-.46,0-.93.03-1.41.09v-2.11c.41.08.88.11,1.41.11h3.68v-5.91h-2.79c-.31,0-.77.02-1.39.07v-1.99c.38.06.84.08,1.39.08h7.88c.34,0,.79-.03,1.36-.08v1.99c-.73-.05-1.18-.07-1.36-.07h-3.05v5.91Z"/>
    <path class="cls-1" d="M101.91,50.28l-1.77-1.17c1.13-.79,1.95-1.95,2.46-3.46.28-.86.42-2.77.42-5.73,0-.53-.04-.97-.13-1.32h2.12c-.07.26-.1.7-.1,1.3,0,3.07-.15,5.15-.44,6.22-.43,1.64-1.29,3.03-2.57,4.16ZM108.04,50.32l-1.2-1c.08-.36.11-.71.11-1.06v-8.44c0-.6-.04-1.02-.11-1.24h2.16c-.08.23-.11.65-.11,1.26v7.56c.61-.26,1.24-.67,1.89-1.22.65-.55,1.21-1.16,1.68-1.84l1.12,1.6c-.58.75-1.32,1.49-2.24,2.21-.92.72-1.81,1.3-2.67,1.73-.12.07-.33.21-.64.44Z"/>
    <path class="cls-1" d="M120.37,45.45c-.36-.36-.54-.8-.54-1.31s.18-.94.54-1.31c.36-.36.8-.54,1.31-.54s.95.18,1.31.54c.36.36.54.8.54,1.31s-.18.95-.54,1.31c-.36.36-.8.54-1.31.54s-.95-.18-1.31-.54Z"/>
    <path class="cls-1" d="M136.87,47.37h3.83c.41,0,.85-.04,1.34-.11v2.11c-.41-.06-.85-.09-1.34-.09h-9.54c-.46,0-.93.03-1.41.09v-2.11c.41.08.88.11,1.41.11h3.68v-5.91h-2.79c-.31,0-.77.02-1.39.07v-1.99c.38.06.84.08,1.39.08h7.88c.34,0,.79-.03,1.36-.08v1.99c-.73-.05-1.18-.07-1.36-.07h-3.05v5.91Z"/>
    <path class="cls-1" d="M153.5,38.94l1.19.89c-.19.26-.36.56-.51.89-.67,1.53-1.43,2.86-2.28,3.99.69.59,1.42,1.29,2.2,2.1.78.81,1.39,1.49,1.85,2.04l-1.65,1.43c-.93-1.28-2.15-2.65-3.65-4.1-1.7,1.79-3.51,3.15-5.44,4.07l-1.48-1.57c1.1-.41,2.19-1,3.25-1.77,1.07-.76,1.96-1.56,2.69-2.38.48-.55.92-1.15,1.32-1.8s.67-1.24.83-1.75h-4.91c-.18,0-.38,0-.62.02s-.45.03-.67.05c-.22.02-.36.03-.42.03v-2.06c.53.08,1.1.11,1.71.11h5.1c.62,0,1.12-.07,1.5-.2Z"/>
  </g>
</svg>