<?xml version="1.0" encoding="UTF-8"?>
<svg id="_レイヤー_1" data-name="レイヤー 1" xmlns="http://www.w3.org/2000/svg" viewBox="0 0 155.95 27.52">
  <defs>
    <style>
      .cls-1 {
        fill: #ef8200;
      }

      .cls-2 {
        fill: #040000;
      }
    </style>
  </defs>
  <g>
    <polygon class="cls-1" points="58.89 14.92 58.89 0 54.37 0 54.37 14.92 54.37 18.65 58.1 18.65 100.14 18.65 100.14 14.92 58.89 14.92"/>
    <path class="cls-1" d="M40.18,0C43.27,0,45.77,2.5,45.77,5.59s-2.5,5.59-5.59,5.59H4.53v7.46H0V0h40.18ZM39.38,7.46c1.03,0,1.86-.83,1.86-1.86s-.83-1.86-1.86-1.86H4.53v3.73h34.85Z"/>
    <path class="cls-1" d="M116.52,7.46c-1.03,0-1.86-.83-1.86-1.86s.83-1.86,1.86-1.86h39.38s0-3.73,0-3.73h-40.18c-3.09,0-5.59,2.5-5.59,5.59,0,3.09,2.5,5.59,5.59,5.59h33.78c1.03,0,1.86.83,1.86,1.86s-.83,1.86-1.86,1.86h-39.38s0,3.73,0,3.73h40.18c3.09,0,5.59-2.5,5.59-5.59s-2.5-5.59-5.59-5.59h-33.78Z"/>
    <circle class="cls-1" cx="49.37" cy="16.78" r="1.86"/>
    <circle class="cls-1" cx="105.13" cy="16.78" r="1.86"/>
  </g>
  <g>
    <path class="cls-2" d="M6.55,23.84c0,.42-.15.78-.44,1.08-.3.3-.65.45-1.07.45H.87v2.16h-.87v-5.2h5.04c.41,0,.77.15,1.07.45.3.3.44.66.44,1.08ZM5.67,23.84c0-.18-.06-.33-.19-.45s-.27-.19-.45-.19H.87v1.28h4.17c.18,0,.33-.06.45-.19s.19-.28.19-.45Z"/>
    <path class="cls-2" d="M12.43,24.87c0,.31-.11.58-.33.8-.22.22-.49.33-.8.33h-.44l1.51,1.51h-1.05l-1.51-1.51h-1.35v1.51h-.74v-3.78h3.59c.31,0,.57.11.79.33.22.22.33.49.33.8ZM11.68,24.87c0-.1-.04-.19-.11-.27-.07-.07-.16-.11-.26-.11h-2.85v.76h2.85c.1,0,.19-.04.26-.11s.11-.17.11-.27Z"/>
    <path class="cls-2" d="M18.21,26.39c0,.34-.1.61-.31.82-.21.21-.48.31-.82.31h-2.49c-.33,0-.6-.11-.81-.32-.21-.21-.32-.48-.32-.82v-1.51c0-.32.11-.59.33-.81.22-.22.49-.33.8-.33h2.49c.32,0,.6.11.81.32.22.22.32.49.32.81v1.51ZM17.45,26.39v-1.51c0-.26-.13-.38-.38-.38h-2.49c-.11,0-.2.04-.27.11-.07.07-.11.17-.11.27v1.51c0,.25.13.38.38.38h2.49c.25,0,.38-.13.38-.38Z"/>
    <path class="cls-2" d="M23.96,24.49h-4v.76h2.92v.76h-2.92v1.51h-.75v-3.78h4.75v.75Z"/>
    <path class="cls-2" d="M29.69,24.49h-4v.76h2.92v.76h-2.92v1.51h-.75v-3.78h4.75v.75Z"/>
    <path class="cls-2" d="M35.42,27.52h-4.75v-3.78h4.75v.75h-4v.76h4v.76h-4v.75h4v.76Z"/>
    <path class="cls-2" d="M41.15,26.39c0,.31-.11.58-.33.8-.22.22-.49.33-.8.33h-3.62v-.76h3.62c.1,0,.19-.04.27-.11.07-.07.11-.16.11-.26s-.04-.19-.11-.26c-.07-.07-.16-.11-.27-.11h-2.49c-.31,0-.58-.11-.8-.33-.22-.22-.33-.49-.33-.8s.11-.58.33-.8c.22-.22.49-.33.8-.33h3.62v.75h-3.62c-.1,0-.19.04-.27.12-.07.08-.11.17-.11.27s.04.19.11.27.16.11.27.11h2.49c.32,0,.58.11.8.33.22.22.33.49.33.8Z"/>
    <path class="cls-2" d="M42.88,27.52h-.75v-3.78h.75v3.78Z"/>
    <path class="cls-2" d="M48.63,26.39c0,.34-.1.61-.31.82-.21.21-.48.31-.82.31h-2.49c-.33,0-.6-.11-.81-.32-.21-.21-.32-.48-.32-.82v-1.51c0-.32.11-.59.33-.81.22-.22.49-.33.8-.33h2.49c.32,0,.6.11.81.32.22.22.32.49.32.81v1.51ZM47.88,26.39v-1.51c0-.26-.13-.38-.38-.38h-2.49c-.11,0-.2.04-.27.11-.07.07-.11.17-.11.27v1.51c0,.25.13.38.38.38h2.49c.25,0,.38-.13.38-.38Z"/>
    <path class="cls-2" d="M54.38,27.52h-.96l-3.04-2.88v2.88h-.75v-3.78h.96l3.04,2.88v-2.88h.76v3.78Z"/>
    <path class="cls-2" d="M60.58,27.52h-.92l-.47-.75h-2.53l-.46.75h-.92l2.27-3.78h.76l2.27,3.78ZM58.73,26.01l-.79-1.27-.8,1.27h1.59Z"/>
    <path class="cls-2" d="M66.24,27.52h-4.75v-3.78h.75v3.02h4v.76Z"/>
    <path class="cls-2" d="M77.45,27.52h-6.55v-5.2h.87v4.32h5.67v.88Z"/>
    <path class="cls-2" d="M83.37,26.39c0,.34-.1.61-.31.82-.21.21-.48.31-.83.31h-2.49c-.33,0-.6-.11-.81-.32-.21-.21-.32-.48-.32-.82v-1.51c0-.32.11-.59.33-.81.22-.22.49-.33.8-.33h2.49c.32,0,.6.11.81.32.22.22.32.49.32.81v1.51ZM82.61,26.39v-1.51c0-.26-.13-.38-.38-.38h-2.49c-.11,0-.2.04-.27.11-.07.07-.11.17-.11.27v1.51c0,.25.13.38.38.38h2.49c.25,0,.38-.13.38-.38Z"/>
    <path class="cls-2" d="M89.1,27.52h-3.62c-.34,0-.61-.1-.82-.31-.21-.21-.31-.48-.31-.82v-1.51c0-.32.11-.59.32-.81s.48-.32.81-.32h3.62v.75h-3.62c-.25,0-.38.13-.38.38v1.51c0,.25.13.38.38.38h2.87v-.75h-1.35v-.76h2.11v2.27Z"/>
    <path class="cls-2" d="M90.86,27.52h-.75v-3.78h.75v3.78Z"/>
    <path class="cls-2" d="M96.59,26.39c0,.31-.11.58-.33.8-.22.22-.49.33-.8.33h-3.62v-.76h3.62c.1,0,.19-.04.27-.11.07-.07.11-.16.11-.26s-.04-.19-.11-.26c-.07-.07-.16-.11-.27-.11h-2.49c-.31,0-.58-.11-.8-.33-.22-.22-.33-.49-.33-.8s.11-.58.33-.8c.22-.22.49-.33.8-.33h3.62v.75h-3.62c-.1,0-.19.04-.27.12-.07.08-.11.17-.11.27s.04.19.11.27c.07.07.16.11.27.11h2.49c.32,0,.58.11.8.33.22.22.33.49.33.8Z"/>
    <path class="cls-2" d="M102.32,24.49h-2v3.03h-.76v-3.03h-1.99v-.75h4.75v.75Z"/>
    <path class="cls-2" d="M104.05,27.52h-.75v-3.78h.75v3.78Z"/>
    <path class="cls-2" d="M109.8,27.52h-3.62c-.32,0-.59-.11-.81-.32s-.32-.48-.32-.81v-1.51c0-.33.11-.61.32-.82.21-.21.48-.32.81-.32h3.62v.75h-3.62c-.25,0-.38.13-.38.38v1.51c0,.25.13.38.38.38h3.62v.76Z"/>
    <path class="cls-2" d="M115.53,26.39c0,.31-.11.58-.33.8-.22.22-.49.33-.8.33h-3.62v-.76h3.62c.1,0,.19-.04.27-.11.07-.07.11-.16.11-.26s-.04-.19-.11-.26c-.07-.07-.16-.11-.27-.11h-2.49c-.31,0-.58-.11-.8-.33-.22-.22-.33-.49-.33-.8s.11-.58.33-.8c.22-.22.49-.33.8-.33h3.62v.75h-3.62c-.1,0-.19.04-.27.12-.07.08-.11.17-.11.27s.04.19.11.27c.07.07.16.11.27.11h2.49c.32,0,.58.11.8.33.22.22.33.49.33.8Z"/>
    <path class="cls-2" d="M126.74,23.2h-5.04c-.18,0-.33.06-.45.19s-.19.28-.19.45.06.33.19.45.27.19.45.19h3.53c.41,0,.77.15,1.07.44s.44.65.44,1.08-.15.78-.44,1.07-.65.45-1.07.45h-5.04v-.88h5.04c.18,0,.33-.06.45-.19.12-.13.19-.28.19-.45s-.06-.33-.19-.45c-.12-.13-.27-.19-.45-.19h-3.53c-.41,0-.77-.15-1.07-.45-.3-.3-.44-.66-.44-1.08s.15-.78.44-1.08c.3-.3.65-.45,1.07-.45h5.04v.88Z"/>
    <path class="cls-2" d="M132.33,23.74l-2.01,2.22v1.56h-.75v-1.57l-2-2.21h.92l1.46,1.53,1.46-1.53h.92Z"/>
    <path class="cls-2" d="M137.73,26.39c0,.31-.11.58-.33.8-.22.22-.49.33-.8.33h-3.62v-.76h3.62c.1,0,.19-.04.27-.11.07-.07.11-.16.11-.26s-.04-.19-.11-.26c-.07-.07-.16-.11-.27-.11h-2.49c-.31,0-.58-.11-.8-.33-.22-.22-.33-.49-.33-.8s.11-.58.33-.8c.22-.22.49-.33.8-.33h3.62v.75h-3.62c-.1,0-.19.04-.27.12-.07.08-.11.17-.11.27s.04.19.11.27c.07.07.16.11.27.11h2.49c.32,0,.58.11.8.33.22.22.33.49.33.8Z"/>
    <path class="cls-2" d="M143.46,24.49h-2v3.03h-.76v-3.03h-1.99v-.75h4.75v.75Z"/>
    <path class="cls-2" d="M149.19,27.52h-4.75v-3.78h4.75v.75h-4v.76h4v.76h-4v.75h4v.76Z"/>
    <path class="cls-2" d="M155.95,27.52h-.76v-2.68l-1.76,2.68h-.72l-1.77-2.68v2.68h-.75v-3.78h.96l1.91,2.84,1.92-2.84h.98v3.78Z"/>
  </g>
</svg>